<svg width="24" height="20" viewBox="0 0 24 20" fill="none" xmlns="http://www.w3.org/2000/svg">
<path d="M22.8 11.1999H1.2C0.881741 11.1999 0.576516 11.0734 0.351472 10.8484C0.126428 10.6234 0 10.3181 0 9.9999C0 9.68164 0.126428 9.37642 0.351472 9.15137C0.576516 8.92633 0.881741 8.7999 1.2 8.7999H22.8C23.1182 8.7999 23.4235 8.92633 23.6485 9.15137C23.8735 9.37642 24 9.68164 24 9.9999C24 10.3181 23.8735 10.6234 23.6485 10.8484C23.4235 11.0734 23.1182 11.1999 22.8 11.1999ZM22.8 2.7999H1.2C0.881741 2.7999 0.576516 2.67347 0.351472 2.44843C0.126428 2.22339 0 1.91817 0 1.5999C0 1.28164 0.126428 0.976418 0.351472 0.75137C0.576516 0.526334 0.881741 0.399902 1.2 0.399902H22.8C23.1182 0.399902 23.4235 0.526334 23.6485 0.75137C23.8735 0.976418 24 1.28164 24 1.5999C24 1.91817 23.8735 2.22339 23.6485 2.44843C23.4235 2.67347 23.1182 2.7999 22.8 2.7999ZM22.8 19.5999H1.2C0.881741 19.5999 0.576516 19.4734 0.351472 19.2484C0.126428 19.0234 0 18.7181 0 18.3999C0 18.0817 0.126428 17.7764 0.351472 17.5514C0.576516 17.3264 0.881741 17.1999 1.2 17.1999H22.8C23.1182 17.1999 23.4235 17.3264 23.6485 17.5514C23.8735 17.7764 24 18.0817 24 18.3999C24 18.7181 23.8735 19.0234 23.6485 19.2484C23.4235 19.4734 23.1182 19.5999 22.8 19.5999Z" fill="#777E90"/>
</svg>
