<svg width="24" height="25" viewBox="0 0 24 25" fill="none" xmlns="http://www.w3.org/2000/svg">
<path fill-rule="evenodd" clip-rule="evenodd" d="M19 6.18066H5C4.44772 6.18066 4 6.62838 4 7.18066V19.1807C4 19.7329 4.44772 20.1807 5 20.1807H19C19.5523 20.1807 20 19.7329 20 19.1807V7.18066C20 6.62838 19.5523 6.18066 19 6.18066ZM5 4.18066C3.34315 4.18066 2 5.52381 2 7.18066V19.1807C2 20.8375 3.34315 22.1807 5 22.1807H19C20.6569 22.1807 22 20.8375 22 19.1807V7.18066C22 5.52381 20.6569 4.18066 19 4.18066H5Z" fill="#B1B5C4"/>
<path fill-rule="evenodd" clip-rule="evenodd" d="M10 12.1807C9.44772 12.1807 9 12.6284 9 13.1807C9 13.7329 9.44772 14.1807 10 14.1807H17C17.5523 14.1807 18 13.7329 18 13.1807C18 12.6284 17.5523 12.1807 17 12.1807H10ZM7 16.1807C6.44772 16.1807 6 16.6284 6 17.1807C6 17.7329 6.44772 18.1807 7 18.1807H13C13.5523 18.1807 14 17.7329 14 17.1807C14 16.6284 13.5523 16.1807 13 16.1807H7Z" fill="#B1B5C4"/>
<path fill-rule="evenodd" clip-rule="evenodd" d="M7 2.18066C6.44772 2.18066 6 2.62838 6 3.18066V7.18066C6 7.73295 6.44772 8.18066 7 8.18066C7.55228 8.18066 8 7.73295 8 7.18066V3.18066C8 2.62838 7.55228 2.18066 7 2.18066ZM17 2.18066C16.4477 2.18066 16 2.62838 16 3.18066V7.18066C16 7.73295 16.4477 8.18066 17 8.18066C17.5523 8.18066 18 7.73295 18 7.18066V3.18066C18 2.62838 17.5523 2.18066 17 2.18066Z" fill="#B1B5C4"/>
</svg>
