<svg width="292" height="97" viewBox="0 0 292 97" fill="none" xmlns="http://www.w3.org/2000/svg">
<path fill-rule="evenodd" clip-rule="evenodd" d="M40.6415 40.4251C42.0423 38.4807 43 36.3437 43 34.1807C43 30.3147 39.866 27.1807 36 27.1807C32.134 27.1807 29 30.3147 29 34.1807C29 36.3437 29.9577 38.4807 31.3585 40.4251C32.7487 42.3549 34.4581 43.9309 35.6769 44.9291C35.8768 45.0929 36.1232 45.0929 36.3231 44.9291C37.5419 43.9309 39.2513 42.3549 40.6415 40.4251ZM37.5904 46.4764C40.1746 44.3598 45 39.6723 45 34.1807C45 29.2101 40.9706 25.1807 36 25.1807C31.0294 25.1807 27 29.2101 27 34.1807C27 39.6723 31.8254 44.3598 34.4096 46.4764C35.3466 47.2438 36.6534 47.2438 37.5904 46.4764Z" fill="#B1B5C4"/>
<path fill-rule="evenodd" clip-rule="evenodd" d="M36 32.1807C34.8954 32.1807 34 33.0761 34 34.1807C34 35.2852 34.8954 36.1807 36 36.1807C37.1046 36.1807 38 35.2852 38 34.1807C38 33.0761 37.1046 32.1807 36 32.1807ZM32 34.1807C32 31.9715 33.7909 30.1807 36 30.1807C38.2091 30.1807 40 31.9715 40 34.1807C40 36.3898 38.2091 38.1807 36 38.1807C33.7909 38.1807 32 36.3898 32 34.1807Z" fill="#B1B5C4"/>
<path d="M76.48 27.2127V30.4767H69.52V34.1967H74.896V37.3167H69.52V44.1807H65.416V27.2127H76.48ZM82.6919 33.3087C83.2039 32.4927 83.8599 31.8447 84.6599 31.3647C85.4759 30.8847 86.3559 30.6447 87.2999 30.6447V35.0367H86.1239C85.0359 35.0367 84.1879 35.2687 83.5799 35.7327C82.9879 36.1967 82.6919 36.9807 82.6919 38.0847V44.1807H78.5879V30.7887H82.6919V33.3087ZM95.2816 30.6207C96.6096 30.6207 97.7936 30.9007 98.8336 31.4607C99.8896 32.0047 100.714 32.7967 101.306 33.8367C101.914 34.8767 102.218 36.0927 102.218 37.4847C102.218 38.8767 101.914 40.0927 101.306 41.1327C100.714 42.1727 99.8896 42.9727 98.8336 43.5327C97.7936 44.0767 96.6096 44.3487 95.2816 44.3487C93.9536 44.3487 92.7616 44.0767 91.7056 43.5327C90.6496 42.9727 89.8176 42.1727 89.2096 41.1327C88.6176 40.0927 88.3216 38.8767 88.3216 37.4847C88.3216 36.0927 88.6176 34.8767 89.2096 33.8367C89.8176 32.7967 90.6496 32.0047 91.7056 31.4607C92.7616 30.9007 93.9536 30.6207 95.2816 30.6207ZM95.2816 34.1727C94.4976 34.1727 93.8336 34.4607 93.2896 35.0367C92.7616 35.5967 92.4976 36.4127 92.4976 37.4847C92.4976 38.5567 92.7616 39.3727 93.2896 39.9327C93.8336 40.4927 94.4976 40.7727 95.2816 40.7727C96.0656 40.7727 96.7216 40.4927 97.2496 39.9327C97.7776 39.3727 98.0416 38.5567 98.0416 37.4847C98.0416 36.4127 97.7776 35.5967 97.2496 35.0367C96.7216 34.4607 96.0656 34.1727 95.2816 34.1727ZM121.698 30.6447C123.346 30.6447 124.642 31.1567 125.586 32.1807C126.53 33.1887 127.002 34.5967 127.002 36.4047V44.1807H122.922V36.8847C122.922 36.0367 122.69 35.3807 122.226 34.9167C121.778 34.4367 121.162 34.1967 120.378 34.1967C119.562 34.1967 118.914 34.4527 118.434 34.9647C117.97 35.4607 117.738 36.1647 117.738 37.0767V44.1807H113.634V36.8847C113.634 36.0367 113.41 35.3807 112.962 34.9167C112.514 34.4367 111.898 34.1967 111.114 34.1967C110.298 34.1967 109.65 34.4447 109.17 34.9407C108.69 35.4367 108.45 36.1487 108.45 37.0767V44.1807H104.346V30.7887H108.45V33.0687C108.802 32.3167 109.338 31.7247 110.058 31.2927C110.794 30.8607 111.65 30.6447 112.626 30.6447C113.65 30.6447 114.554 30.8847 115.338 31.3647C116.122 31.8287 116.714 32.5007 117.114 33.3807C117.578 32.5487 118.21 31.8847 119.01 31.3887C119.826 30.8927 120.722 30.6447 121.698 30.6447Z" fill="#23262F"/>
<path d="M67.68 58.8687V70.1807H64.944V58.8687H67.68ZM75.233 61.1567C76.257 61.1567 77.0677 61.498 77.665 62.1807C78.273 62.8633 78.577 63.802 78.577 64.9967V70.1807H75.841V65.3167C75.841 64.7193 75.681 64.2553 75.361 63.9247C75.0517 63.5833 74.6357 63.4127 74.113 63.4127C73.5583 63.4127 73.1157 63.5887 72.785 63.9407C72.465 64.2927 72.305 64.794 72.305 65.4447V70.1807H69.569V61.2527H72.305V62.8847C72.561 62.3513 72.9397 61.93 73.441 61.6207C73.953 61.3113 74.5503 61.1567 75.233 61.1567ZM83.7735 61.1407C84.4562 61.1407 85.0428 61.2953 85.5335 61.6047C86.0242 61.914 86.3815 62.3353 86.6055 62.8687V58.3407H89.3415V70.1807H86.6055V68.5647C86.3815 69.098 86.0242 69.5193 85.5335 69.8287C85.0428 70.138 84.4562 70.2927 83.7735 70.2927C83.0375 70.2927 82.3762 70.1113 81.7895 69.7487C81.2135 69.3753 80.7548 68.842 80.4135 68.1487C80.0828 67.4553 79.9175 66.6447 79.9175 65.7167C79.9175 64.778 80.0828 63.9673 80.4135 63.2847C80.7548 62.5913 81.2135 62.0633 81.7895 61.7007C82.3762 61.3273 83.0375 61.1407 83.7735 61.1407ZM84.6535 63.5407C84.0668 63.5407 83.5922 63.7327 83.2295 64.1167C82.8775 64.5007 82.7015 65.034 82.7015 65.7167C82.7015 66.3993 82.8775 66.9327 83.2295 67.3167C83.5922 67.7007 84.0668 67.8927 84.6535 67.8927C85.2295 67.8927 85.6988 67.6953 86.0615 67.3007C86.4348 66.906 86.6215 66.378 86.6215 65.7167C86.6215 65.0447 86.4348 64.5167 86.0615 64.1327C85.6988 63.738 85.2295 63.5407 84.6535 63.5407ZM90.9693 58.7407C90.9693 58.3247 91.1186 57.9833 91.4173 57.7167C91.7159 57.4393 92.1106 57.3007 92.6013 57.3007C93.0919 57.3007 93.4866 57.4393 93.7853 57.7167C94.0839 57.9833 94.2333 58.3247 94.2333 58.7407C94.2333 59.146 94.0839 59.4873 93.7853 59.7647C93.4866 60.0313 93.0919 60.1647 92.6013 60.1647C92.1106 60.1647 91.7159 60.0313 91.4173 59.7647C91.1186 59.4873 90.9693 59.146 90.9693 58.7407ZM93.9613 61.2527V70.1807H91.2253V61.2527H93.9613ZM99.2423 61.1407C99.9249 61.1407 100.512 61.2953 101.002 61.6047C101.493 61.914 101.856 62.3353 102.09 62.8687V61.2527H104.81V70.1807H102.09V68.5647C101.856 69.098 101.493 69.5193 101.002 69.8287C100.512 70.138 99.9249 70.2927 99.2423 70.2927C98.5063 70.2927 97.8449 70.1113 97.2582 69.7487C96.6823 69.3753 96.2236 68.842 95.8823 68.1487C95.5516 67.4553 95.3863 66.6447 95.3863 65.7167C95.3863 64.778 95.5516 63.9673 95.8823 63.2847C96.2236 62.5913 96.6823 62.0633 97.2582 61.7007C97.8449 61.3273 98.5063 61.1407 99.2423 61.1407ZM100.122 63.5407C99.5356 63.5407 99.0609 63.7327 98.6983 64.1167C98.3463 64.5007 98.1703 65.034 98.1703 65.7167C98.1703 66.3993 98.3463 66.9327 98.6983 67.3167C99.0609 67.7007 99.5356 67.8927 100.122 67.8927C100.698 67.8927 101.168 67.6953 101.53 67.3007C101.904 66.906 102.09 66.378 102.09 65.7167C102.09 65.0447 101.904 64.5167 101.53 64.1327C101.168 63.738 100.698 63.5407 100.122 63.5407Z" fill="#777E91"/>
<path d="M256 41.5246L265.375 32.1496L264.044 30.8184L260.838 34.0434L256 38.8809L251.163 34.0434L247.956 30.8371L246.625 32.1684L256 41.5246Z" fill="black"/>
</svg>
