<svg width="301" height="96" viewBox="0 0 301 96" fill="none" xmlns="http://www.w3.org/2000/svg">
<path fill-rule="evenodd" clip-rule="evenodd" d="M22.2526 26.4782C24.3132 25.6197 26.3804 27.6869 25.5218 29.7475L19.5983 43.9639C18.4398 46.7442 14.365 46.2743 13.8699 43.3033L13.1308 38.8692L8.69676 38.1302C5.72577 37.635 5.25584 33.5602 8.03611 32.4018L22.2526 26.4782ZM23.6756 28.9782C23.8473 28.5661 23.4339 28.1527 23.0218 28.3244L8.80534 34.2479C7.87858 34.6341 8.03523 35.9923 9.02556 36.1574L13.4596 36.8964C14.3026 37.0369 14.9631 37.6974 15.1036 38.5404L15.8426 42.9745C16.0077 43.9648 17.366 44.1214 17.7521 43.1947L23.6756 28.9782Z" fill="#B1B5C4"/>
<path d="M57.608 39.224C57.608 40.12 57.376 40.944 56.912 41.696C56.464 42.448 55.792 43.048 54.896 43.496C54.016 43.944 52.944 44.168 51.68 44.168C49.776 44.168 48.208 43.704 46.976 42.776C45.744 41.848 45.072 40.552 44.96 38.888H49.328C49.392 39.528 49.616 40.032 50 40.4C50.4 40.768 50.904 40.952 51.512 40.952C52.04 40.952 52.456 40.808 52.76 40.52C53.064 40.232 53.216 39.848 53.216 39.368C53.216 38.936 53.072 38.576 52.784 38.288C52.512 38 52.168 37.768 51.752 37.592C51.336 37.4 50.76 37.176 50.024 36.92C48.952 36.552 48.072 36.2 47.384 35.864C46.712 35.512 46.128 35 45.632 34.328C45.152 33.64 44.912 32.752 44.912 31.664C44.912 30.656 45.168 29.784 45.68 29.048C46.192 28.312 46.896 27.752 47.792 27.368C48.704 26.968 49.744 26.768 50.912 26.768C52.8 26.768 54.296 27.216 55.4 28.112C56.52 29.008 57.152 30.24 57.296 31.808H52.856C52.776 31.248 52.568 30.808 52.232 30.488C51.912 30.152 51.472 29.984 50.912 29.984C50.432 29.984 50.04 30.112 49.736 30.368C49.448 30.624 49.304 31 49.304 31.496C49.304 31.896 49.432 32.24 49.688 32.528C49.96 32.8 50.296 33.024 50.696 33.2C51.096 33.376 51.672 33.6 52.424 33.872C53.512 34.24 54.4 34.608 55.088 34.976C55.776 35.328 56.368 35.848 56.864 36.536C57.36 37.224 57.608 38.12 57.608 39.224ZM72.5969 36.944C72.5969 37.28 72.5569 37.648 72.4769 38.048H63.1889C63.2369 39.056 63.4929 39.784 63.9569 40.232C64.4209 40.664 65.0129 40.88 65.7329 40.88C66.3409 40.88 66.8449 40.728 67.2449 40.424C67.6449 40.12 67.9089 39.728 68.0369 39.248H72.3809C72.2049 40.192 71.8209 41.04 71.2289 41.792C70.6369 42.528 69.8849 43.112 68.9729 43.544C68.0609 43.96 67.0449 44.168 65.9249 44.168C64.6129 44.168 63.4449 43.896 62.4209 43.352C61.4129 42.792 60.6209 41.992 60.0449 40.952C59.4689 39.912 59.1809 38.696 59.1809 37.304C59.1809 35.896 59.4609 34.68 60.0209 33.656C60.5969 32.616 61.3969 31.824 62.4209 31.28C63.4449 30.72 64.6129 30.44 65.9249 30.44C67.2529 30.44 68.4209 30.712 69.4289 31.256C70.4369 31.8 71.2129 32.568 71.7569 33.56C72.3169 34.536 72.5969 35.664 72.5969 36.944ZM68.4449 36.32C68.4609 35.44 68.2209 34.784 67.7249 34.352C67.2449 33.904 66.6449 33.68 65.9249 33.68C65.1729 33.68 64.5489 33.904 64.0529 34.352C63.5569 34.8 63.2769 35.456 63.2129 36.32H68.4449ZM78.8403 26.24V44H74.7363V26.24H78.8403ZM94.3938 36.944C94.3938 37.28 94.3538 37.648 94.2738 38.048H84.9858C85.0338 39.056 85.2898 39.784 85.7538 40.232C86.2178 40.664 86.8098 40.88 87.5298 40.88C88.1378 40.88 88.6418 40.728 89.0418 40.424C89.4418 40.12 89.7058 39.728 89.8338 39.248H94.1778C94.0018 40.192 93.6178 41.04 93.0258 41.792C92.4338 42.528 91.6818 43.112 90.7698 43.544C89.8578 43.96 88.8418 44.168 87.7218 44.168C86.4098 44.168 85.2418 43.896 84.2178 43.352C83.2098 42.792 82.4178 41.992 81.8418 40.952C81.2658 39.912 80.9778 38.696 80.9778 37.304C80.9778 35.896 81.2578 34.68 81.8178 33.656C82.3938 32.616 83.1938 31.824 84.2178 31.28C85.2418 30.72 86.4098 30.44 87.7218 30.44C89.0498 30.44 90.2178 30.712 91.2258 31.256C92.2338 31.8 93.0098 32.568 93.5538 33.56C94.1138 34.536 94.3938 35.664 94.3938 36.944ZM90.2418 36.32C90.2578 35.44 90.0178 34.784 89.5218 34.352C89.0418 33.904 88.4418 33.68 87.7218 33.68C86.9698 33.68 86.3458 33.904 85.8498 34.352C85.3538 34.8 85.0738 35.456 85.0098 36.32H90.2418ZM102.581 30.44C104.309 30.44 105.757 30.92 106.925 31.88C108.093 32.824 108.829 34.128 109.133 35.792H104.789C104.661 35.216 104.397 34.768 103.997 34.448C103.597 34.128 103.093 33.968 102.485 33.968C101.765 33.968 101.173 34.256 100.709 34.832C100.245 35.392 100.013 36.216 100.013 37.304C100.013 38.392 100.245 39.224 100.709 39.8C101.173 40.36 101.765 40.64 102.485 40.64C103.093 40.64 103.597 40.48 103.997 40.16C104.397 39.84 104.661 39.392 104.789 38.816H109.133C108.829 40.48 108.093 41.792 106.925 42.752C105.757 43.696 104.309 44.168 102.581 44.168C101.269 44.168 100.101 43.896 99.0772 43.352C98.0692 42.792 97.2772 41.992 96.7012 40.952C96.1252 39.912 95.8372 38.696 95.8372 37.304C95.8372 35.896 96.1172 34.68 96.6772 33.656C97.2532 32.616 98.0532 31.824 99.0772 31.28C100.101 30.72 101.269 30.44 102.581 30.44ZM118.859 40.472V44H117.011C115.443 44 114.219 43.616 113.339 42.848C112.475 42.064 112.043 40.776 112.043 38.984V34.064H110.243V30.608H112.043V27.32H116.147V30.608H118.835V34.064H116.147V39.056C116.147 39.584 116.251 39.952 116.459 40.16C116.683 40.368 117.051 40.472 117.563 40.472H118.859ZM131.059 30.44C132.083 30.44 132.963 30.672 133.699 31.136C134.435 31.6 134.979 32.232 135.331 33.032V30.608H139.411V44H135.331V41.576C134.979 42.376 134.435 43.008 133.699 43.472C132.963 43.936 132.083 44.168 131.059 44.168C129.955 44.168 128.963 43.896 128.083 43.352C127.219 42.792 126.531 41.992 126.019 40.952C125.523 39.912 125.275 38.696 125.275 37.304C125.275 35.896 125.523 34.68 126.019 33.656C126.531 32.616 127.219 31.824 128.083 31.28C128.963 30.72 129.955 30.44 131.059 30.44ZM132.379 34.04C131.499 34.04 130.787 34.328 130.243 34.904C129.715 35.48 129.451 36.28 129.451 37.304C129.451 38.328 129.715 39.128 130.243 39.704C130.787 40.28 131.499 40.568 132.379 40.568C133.243 40.568 133.947 40.272 134.491 39.68C135.051 39.088 135.331 38.296 135.331 37.304C135.331 36.296 135.051 35.504 134.491 34.928C133.947 34.336 133.243 34.04 132.379 34.04ZM153.089 30.44C154.817 30.44 156.265 30.92 157.433 31.88C158.601 32.824 159.337 34.128 159.641 35.792H155.297C155.169 35.216 154.905 34.768 154.505 34.448C154.105 34.128 153.601 33.968 152.993 33.968C152.273 33.968 151.681 34.256 151.217 34.832C150.753 35.392 150.521 36.216 150.521 37.304C150.521 38.392 150.753 39.224 151.217 39.8C151.681 40.36 152.273 40.64 152.993 40.64C153.601 40.64 154.105 40.48 154.505 40.16C154.905 39.84 155.169 39.392 155.297 38.816H159.641C159.337 40.48 158.601 41.792 157.433 42.752C156.265 43.696 154.817 44.168 153.089 44.168C151.777 44.168 150.609 43.896 149.585 43.352C148.577 42.792 147.785 41.992 147.209 40.952C146.633 39.912 146.345 38.696 146.345 37.304C146.345 35.896 146.625 34.68 147.185 33.656C147.761 32.616 148.561 31.824 149.585 31.28C150.609 30.72 151.777 30.44 153.089 30.44ZM168.047 30.44C169.375 30.44 170.559 30.72 171.599 31.28C172.655 31.824 173.479 32.616 174.071 33.656C174.679 34.696 174.983 35.912 174.983 37.304C174.983 38.696 174.679 39.912 174.071 40.952C173.479 41.992 172.655 42.792 171.599 43.352C170.559 43.896 169.375 44.168 168.047 44.168C166.719 44.168 165.527 43.896 164.471 43.352C163.415 42.792 162.583 41.992 161.975 40.952C161.383 39.912 161.087 38.696 161.087 37.304C161.087 35.912 161.383 34.696 161.975 33.656C162.583 32.616 163.415 31.824 164.471 31.28C165.527 30.72 166.719 30.44 168.047 30.44ZM168.047 33.992C167.263 33.992 166.599 34.28 166.055 34.856C165.527 35.416 165.263 36.232 165.263 37.304C165.263 38.376 165.527 39.192 166.055 39.752C166.599 40.312 167.263 40.592 168.047 40.592C168.831 40.592 169.487 40.312 170.015 39.752C170.543 39.192 170.807 38.376 170.807 37.304C170.807 36.232 170.543 35.416 170.015 34.856C169.487 34.28 168.831 33.992 168.047 33.992ZM190.431 30.608V44H186.303V41.576C185.919 42.36 185.343 42.984 184.575 43.448C183.823 43.912 182.943 44.144 181.935 44.144C180.399 44.144 179.175 43.632 178.263 42.608C177.367 41.584 176.919 40.176 176.919 38.384V30.608H180.999V37.88C180.999 38.792 181.231 39.504 181.695 40.016C182.175 40.512 182.815 40.76 183.615 40.76C184.447 40.76 185.103 40.496 185.583 39.968C186.063 39.44 186.303 38.688 186.303 37.712V30.608H190.431ZM201.756 30.464C203.292 30.464 204.508 30.976 205.404 32C206.316 33.024 206.772 34.432 206.772 36.224V44H202.668V36.704C202.668 35.808 202.428 35.112 201.948 34.616C201.484 34.104 200.86 33.848 200.076 33.848C199.244 33.848 198.58 34.112 198.084 34.64C197.604 35.168 197.364 35.92 197.364 36.896V44H193.26V30.608H197.364V33.056C197.748 32.256 198.316 31.624 199.068 31.16C199.836 30.696 200.732 30.464 201.756 30.464ZM217.063 40.472V44H215.215C213.647 44 212.423 43.616 211.543 42.848C210.679 42.064 210.247 40.776 210.247 38.984V34.064H208.447V30.608H210.247V27.32H214.351V30.608H217.039V34.064H214.351V39.056C214.351 39.584 214.455 39.952 214.663 40.16C214.887 40.368 215.255 40.472 215.767 40.472H217.063ZM223.473 33.128C223.985 32.312 224.641 31.664 225.441 31.184C226.257 30.704 227.137 30.464 228.081 30.464V34.856H226.905C225.817 34.856 224.969 35.088 224.361 35.552C223.769 36.016 223.473 36.8 223.473 37.904V44H219.369V30.608H223.473V33.128ZM232.895 30.608L236.111 38.816L239.111 30.608H243.647L235.295 50.384H230.783L233.927 43.496L228.311 30.608H232.895Z" fill="#23262F"/>
<path d="M50.24 58.576C51.6587 58.576 52.8267 58.9227 53.744 59.616C54.6613 60.3093 55.232 61.248 55.456 62.432H52.56C52.368 62.0267 52.0747 61.7067 51.68 61.472C51.2853 61.2267 50.8107 61.104 50.256 61.104C49.392 61.104 48.6987 61.3973 48.176 61.984C47.6533 62.56 47.392 63.344 47.392 64.336C47.392 65.4133 47.664 66.24 48.208 66.816C48.7627 67.392 49.5467 67.68 50.56 67.68C51.2107 67.68 51.7813 67.504 52.272 67.152C52.7627 66.7893 53.1093 66.2773 53.312 65.616H49.856V63.648H55.6V66.352C55.3867 67.0133 55.0453 67.6267 54.576 68.192C54.1067 68.7573 53.504 69.216 52.768 69.568C52.0427 69.92 51.2107 70.096 50.272 70.096C49.1307 70.096 48.1333 69.856 47.28 69.376C46.4267 68.8853 45.7653 68.2027 45.296 67.328C44.8373 66.4533 44.608 65.456 44.608 64.336C44.608 63.216 44.8373 62.2187 45.296 61.344C45.7653 60.4693 46.4213 59.792 47.264 59.312C48.1173 58.8213 49.1093 58.576 50.24 58.576ZM61.3075 60.96C62.1928 60.96 62.9822 61.1467 63.6755 61.52C64.3795 61.8827 64.9288 62.4107 65.3235 63.104C65.7288 63.7973 65.9315 64.608 65.9315 65.536C65.9315 66.464 65.7288 67.2747 65.3235 67.968C64.9288 68.6613 64.3795 69.1947 63.6755 69.568C62.9822 69.9307 62.1928 70.112 61.3075 70.112C60.4222 70.112 59.6275 69.9307 58.9235 69.568C58.2195 69.1947 57.6648 68.6613 57.2595 67.968C56.8648 67.2747 56.6675 66.464 56.6675 65.536C56.6675 64.608 56.8648 63.7973 57.2595 63.104C57.6648 62.4107 58.2195 61.8827 58.9235 61.52C59.6275 61.1467 60.4222 60.96 61.3075 60.96ZM61.3075 63.328C60.7848 63.328 60.3422 63.52 59.9795 63.904C59.6275 64.2773 59.4515 64.8213 59.4515 65.536C59.4515 66.2507 59.6275 66.7947 59.9795 67.168C60.3422 67.5413 60.7848 67.728 61.3075 67.728C61.8302 67.728 62.2675 67.5413 62.6195 67.168C62.9715 66.7947 63.1475 66.2507 63.1475 65.536C63.1475 64.8213 62.9715 64.2773 62.6195 63.904C62.2675 63.52 61.8302 63.328 61.3075 63.328ZM67.0943 58.56C67.0943 58.144 67.2436 57.8027 67.5423 57.536C67.8409 57.2587 68.2356 57.12 68.7263 57.12C69.2169 57.12 69.6116 57.2587 69.9103 57.536C70.2089 57.8027 70.3583 58.144 70.3583 58.56C70.3583 58.9653 70.2089 59.3067 69.9103 59.584C69.6116 59.8507 69.2169 59.984 68.7263 59.984C68.2356 59.984 67.8409 59.8507 67.5423 59.584C67.2436 59.3067 67.0943 58.9653 67.0943 58.56ZM70.0863 61.072V70H67.3503V61.072H70.0863ZM77.6393 60.976C78.6633 60.976 79.4739 61.3173 80.0712 62C80.6793 62.6827 80.9833 63.6213 80.9833 64.816V70H78.2473V65.136C78.2473 64.5387 78.0873 64.0747 77.7673 63.744C77.4579 63.4027 77.0419 63.232 76.5193 63.232C75.9646 63.232 75.5219 63.408 75.1913 63.76C74.8713 64.112 74.7113 64.6133 74.7113 65.264V70H71.9753V61.072H74.7113V62.704C74.9673 62.1707 75.3459 61.7493 75.8473 61.44C76.3593 61.1307 76.9566 60.976 77.6393 60.976ZM86.1798 60.96C86.8624 60.96 87.4491 61.1147 87.9398 61.424C88.4304 61.7333 88.7931 62.1547 89.0278 62.688V61.072H91.7478V69.952C91.7478 70.784 91.5878 71.5307 91.2678 72.192C90.9478 72.864 90.4571 73.3973 89.7958 73.792C89.1344 74.1867 88.3131 74.384 87.3318 74.384C85.9878 74.384 84.9104 74.064 84.0998 73.424C83.2998 72.7947 82.8198 71.936 82.6598 70.848H85.3638C85.4491 71.2107 85.6411 71.4933 85.9398 71.696C86.2491 71.8987 86.6491 72 87.1398 72C87.7051 72 88.1584 71.8347 88.4998 71.504C88.8518 71.184 89.0278 70.6667 89.0278 69.952V68.384C88.7931 68.9173 88.4304 69.3387 87.9398 69.648C87.4491 69.9573 86.8624 70.112 86.1798 70.112C85.4438 70.112 84.7824 69.9307 84.1957 69.568C83.6198 69.1947 83.1611 68.6613 82.8198 67.968C82.4891 67.2747 82.3238 66.464 82.3238 65.536C82.3238 64.5973 82.4891 63.7867 82.8198 63.104C83.1611 62.4107 83.6198 61.8827 84.1957 61.52C84.7824 61.1467 85.4438 60.96 86.1798 60.96ZM87.0598 63.36C86.4731 63.36 85.9984 63.552 85.6358 63.936C85.2838 64.32 85.1078 64.8533 85.1078 65.536C85.1078 66.2187 85.2838 66.752 85.6358 67.136C85.9984 67.52 86.4731 67.712 87.0598 67.712C87.6358 67.712 88.1051 67.5147 88.4678 67.12C88.8411 66.7253 89.0278 66.1973 89.0278 65.536C89.0278 64.864 88.8411 64.336 88.4678 63.952C88.1051 63.5573 87.6358 63.36 87.0598 63.36ZM101.891 67.648V70H100.659C99.6133 70 98.7973 69.744 98.2106 69.232C97.6346 68.7093 97.3466 67.8507 97.3466 66.656V63.376H96.1466V61.072H97.3466V58.88H100.083V61.072H101.875V63.376H100.083V66.704C100.083 67.056 100.152 67.3013 100.291 67.44C100.44 67.5787 100.685 67.648 101.027 67.648H101.891ZM107.604 60.96C108.49 60.96 109.279 61.1467 109.972 61.52C110.676 61.8827 111.226 62.4107 111.62 63.104C112.026 63.7973 112.228 64.608 112.228 65.536C112.228 66.464 112.026 67.2747 111.62 67.968C111.226 68.6613 110.676 69.1947 109.972 69.568C109.279 69.9307 108.49 70.112 107.604 70.112C106.719 70.112 105.924 69.9307 105.22 69.568C104.516 69.1947 103.962 68.6613 103.556 67.968C103.162 67.2747 102.964 66.464 102.964 65.536C102.964 64.608 103.162 63.7973 103.556 63.104C103.962 62.4107 104.516 61.8827 105.22 61.52C105.924 61.1467 106.719 60.96 107.604 60.96ZM107.604 63.328C107.082 63.328 106.639 63.52 106.276 63.904C105.924 64.2773 105.748 64.8213 105.748 65.536C105.748 66.2507 105.924 66.7947 106.276 67.168C106.639 67.5413 107.082 67.728 107.604 67.728C108.127 67.728 108.564 67.5413 108.916 67.168C109.268 66.7947 109.444 66.2507 109.444 65.536C109.444 64.8213 109.268 64.2773 108.916 63.904C108.564 63.52 108.127 63.328 107.604 63.328Z" fill="#777E91"/>
<path d="M272 41.3439L281.375 31.9689L280.044 30.6377L276.838 33.8627L272 38.7002L267.163 33.8627L263.956 30.6564L262.625 31.9877L272 41.3439Z" fill="black"/>
</svg>
