<svg width="24" height="25" viewBox="0 0 24 25" fill="none" xmlns="http://www.w3.org/2000/svg">
<path fill-rule="evenodd" clip-rule="evenodd" d="M16.6415 16.4251C18.0423 14.4807 19 12.3437 19 10.1807C19 6.31467 15.866 3.18066 12 3.18066C8.13401 3.18066 5 6.31467 5 10.1807C5 12.3437 5.95769 14.4807 7.35846 16.4251C8.74868 18.3549 10.4581 19.9309 11.6769 20.9291C11.8768 21.0929 12.1232 21.0929 12.3231 20.9291C13.5419 19.9309 15.2513 18.3549 16.6415 16.4251ZM13.5904 22.4764C16.1746 20.3598 21 15.6723 21 10.1807C21 5.2101 16.9706 1.18066 12 1.18066C7.02944 1.18066 3 5.2101 3 10.1807C3 15.6723 7.82537 20.3598 10.4096 22.4764C11.3466 23.2438 12.6534 23.2438 13.5904 22.4764Z" fill="#B1B5C4"/>
<path fill-rule="evenodd" clip-rule="evenodd" d="M12 8.18066C10.8954 8.18066 10 9.07609 10 10.1807C10 11.2852 10.8954 12.1807 12 12.1807C13.1046 12.1807 14 11.2852 14 10.1807C14 9.07609 13.1046 8.18066 12 8.18066ZM8 10.1807C8 7.97153 9.79086 6.18066 12 6.18066C14.2091 6.18066 16 7.97153 16 10.1807C16 12.3898 14.2091 14.1807 12 14.1807C9.79086 14.1807 8 12.3898 8 10.1807Z" fill="#B1B5C4"/>
</svg>
