<svg width="24" height="25" viewBox="0 0 24 25" fill="none" xmlns="http://www.w3.org/2000/svg">
<path fill-rule="evenodd" clip-rule="evenodd" d="M18.2526 2.6589C20.3132 1.80032 22.3804 3.86754 21.5218 5.92813L15.5983 20.1446C14.4398 22.9249 10.365 22.4549 9.86986 19.4839L9.13084 15.0498L4.69676 14.3108C1.72577 13.8157 1.25584 9.74087 4.03611 8.58242L18.2526 2.6589ZM19.6756 5.1589C19.8473 4.74678 19.4339 4.33334 19.0218 4.50506L4.80534 10.4286C3.87858 10.8147 4.03523 12.173 5.02556 12.338L9.45964 13.0771C10.3026 13.2176 10.9631 13.8781 11.1036 14.721L11.8426 19.1551C12.0077 20.1455 13.366 20.3021 13.7521 19.3753L19.6756 5.1589Z" fill="#B1B5C4"/>
</svg>
