<svg width="16" height="17" viewBox="0 0 16 17" fill="none" xmlns="http://www.w3.org/2000/svg">
<path fill-rule="evenodd" clip-rule="evenodd" d="M11.8282 5.83333H4.1719C3.4028 5.83333 2.79319 6.48224 2.84116 7.24984L3.1745 12.5832C3.21842 13.2859 3.80115 13.8333 4.50523 13.8333H11.4948C12.1989 13.8333 12.7816 13.2859 12.8256 12.5832L13.1589 7.24984C13.2069 6.48224 12.5973 5.83333 11.8282 5.83333ZM4.1719 4.5C2.63371 4.5 1.41448 5.79781 1.51043 7.33301L1.84376 12.6663C1.9316 14.0718 3.09706 15.1667 4.50523 15.1667H11.4948C12.903 15.1667 14.0685 14.0718 14.1563 12.6663L14.4896 7.33301C14.5856 5.79781 13.3663 4.5 11.8282 4.5H4.1719Z" fill="#FCFCFD"/>
<path fill-rule="evenodd" clip-rule="evenodd" d="M4.66675 5.16658C4.66675 3.32564 6.15913 1.83325 8.00008 1.83325C9.84103 1.83325 11.3334 3.32564 11.3334 5.16658V6.49992C11.3334 6.86811 11.0349 7.16658 10.6667 7.16658C10.2986 7.16658 10.0001 6.86811 10.0001 6.49992V5.16658C10.0001 4.06202 9.10465 3.16659 8.00008 3.16659C6.89551 3.16659 6.00008 4.06202 6.00008 5.16658V6.49992C6.00008 6.86811 5.7016 7.16658 5.33341 7.16658C4.96522 7.16658 4.66675 6.86811 4.66675 6.49992V5.16658Z" fill="#FCFCFD"/>
</svg>
