<svg width="17" height="16" viewBox="0 0 17 16" fill="none" xmlns="http://www.w3.org/2000/svg">
<path d="M16.017 5.78721C15.9643 5.62591 15.8261 5.51069 15.6582 5.48436L10.6545 4.7733L8.40278 0.246895C8.32707 0.0954657 8.17235 0 8.00446 0C7.83657 0 7.68185 0.0954656 7.60613 0.250187L5.38408 4.78976L0.380347 5.53374C0.212459 5.56007 0.0741979 5.67529 0.0215271 5.83659C-0.0311438 5.9979 0.0149432 6.17566 0.136745 6.29088L3.76774 9.80995L2.9283 14.7939C2.89867 14.9618 2.9678 15.1297 3.10607 15.2285C3.18178 15.2844 3.27395 15.3141 3.36613 15.3141C3.43855 15.3141 3.50768 15.2976 3.57352 15.2614L8.04067 12.8945L12.521 15.2351C12.5868 15.268 12.656 15.2844 12.7251 15.2844C12.9687 15.2844 13.1695 15.0836 13.1695 14.84C13.1695 14.8038 13.1662 14.7709 13.1563 14.738L12.2906 9.78362L15.8985 6.24479C16.0269 6.12628 16.0697 5.94852 16.017 5.78721Z" fill="#4C40F7"/>
</svg>
