<svg width="26" height="26" viewBox="0 0 26 26" fill="none" xmlns="http://www.w3.org/2000/svg">
<path d="M17.4185 1.50996C16.9492 1.0422 16.3136 0.779541 15.651 0.779541C14.9884 0.779541 14.3528 1.0422 13.8835 1.50996L1.50977 13.8837C1.0414 14.3527 0.77832 14.9884 0.77832 15.6512C0.77832 16.314 1.0414 16.9497 1.50977 17.4187L8.58102 24.49C9.06852 24.9775 9.70852 25.2212 10.3485 25.2212C10.9885 25.2212 11.6285 24.9775 12.116 24.49L24.4898 12.1162C25.4648 11.1425 25.4648 9.55496 24.4898 8.58121L17.4185 1.50996ZM8.88352 18.8837C8.76746 18.9998 8.62969 19.0918 8.47805 19.1546C8.32642 19.2174 8.1639 19.2498 7.99977 19.2498C7.83564 19.2498 7.67312 19.2174 7.52149 19.1546C7.36985 19.0918 7.23208 18.9998 7.11602 18.8837C6.99996 18.7677 6.9079 18.6299 6.84509 18.4782C6.78229 18.3266 6.74996 18.1641 6.74996 18C6.74996 17.8358 6.78229 17.6733 6.84509 17.5217C6.9079 17.37 6.99996 17.2323 7.11602 17.1162C7.3504 16.8818 7.6683 16.7501 7.99977 16.7501C8.33124 16.7501 8.64913 16.8818 8.88352 17.1162C9.1179 17.3506 9.24958 17.6685 9.24958 18C9.24958 18.3314 9.1179 18.6493 8.88352 18.8837ZM17.6335 25.1337L15.866 23.3662L23.366 15.8662L25.1335 17.635L17.6335 25.1337ZM8.36602 0.866209L10.1335 2.63371L2.63352 10.1337L0.866019 8.36496L8.36602 0.866209Z" fill="#113359"/>
</svg>
