<svg width="24" height="28" viewBox="0 0 24 28" fill="none" xmlns="http://www.w3.org/2000/svg">
<path fill-rule="evenodd" clip-rule="evenodd" d="M11.064 0.926697C11.59 0.729394 12.1649 0.703262 12.7067 0.852031L12.936 0.926697L22.2693 4.4267C22.7424 4.60405 23.1553 4.91214 23.4601 5.31508C23.7648 5.71802 23.9488 6.19923 23.9907 6.7027L24 6.92403V14.0747C23.9997 16.235 23.4162 18.3552 22.3111 20.2115C21.206 22.0678 19.6203 23.5914 17.7213 24.6214L17.3667 24.808L12.8947 27.0427C12.6485 27.1659 12.3796 27.2369 12.1048 27.2513C11.8299 27.2658 11.555 27.2234 11.2973 27.1267L11.1053 27.0427L6.63333 24.8067C4.70081 23.8404 3.06503 22.3703 1.89867 20.5515C0.73231 18.7327 0.0786407 16.6328 0.00666682 14.4734L0 14.0734V6.92536C7.7534e-06 6.4202 0.143502 5.92544 0.413778 5.49866C0.684054 5.07188 1.06999 4.73065 1.52667 4.5147L1.73067 4.42803L11.064 0.928031V0.926697ZM10.8573 8.86936L8.20267 13.2934C8.07994 13.4977 8.01365 13.731 8.01058 13.9693C8.00751 14.2077 8.06776 14.4426 8.18518 14.65C8.3026 14.8575 8.47298 15.0301 8.67891 15.1501C8.88485 15.2702 9.11896 15.3334 9.35733 15.3334H12.312L10.8573 17.7587C10.6875 18.0612 10.6422 18.418 10.7311 18.7533C10.82 19.0887 11.0362 19.3761 11.3336 19.5547C11.6311 19.7333 11.9864 19.7889 12.3242 19.7097C12.6619 19.6305 12.9555 19.4228 13.1427 19.1307L15.7973 14.7067C15.9201 14.5023 15.9863 14.2691 15.9894 14.0307C15.9925 13.7924 15.9322 13.5575 15.8148 13.35C15.6974 13.1426 15.527 12.97 15.3211 12.85C15.1152 12.7299 14.881 12.6667 14.6427 12.6667H11.688L13.1427 10.2414C13.3125 9.93887 13.3578 9.58208 13.2689 9.24674C13.18 8.9114 12.9638 8.62393 12.6664 8.44536C12.3689 8.26679 12.0136 8.21119 11.6758 8.29036C11.3381 8.36952 11.0445 8.57723 10.8573 8.86936Z" fill="#34A853"/>
</svg>
